<svg width="28" height="28" viewBox="0 0 28 28" fill="none" xmlns="http://www.w3.org/2000/svg">
<path fill-rule="evenodd" clip-rule="evenodd" d="M13.4167 1.16675C12.7723 1.16675 12.25 1.68908 12.25 2.33341V3.50008H11.6666C8.44508 3.50008 5.83332 6.11137 5.83332 9.33313V12.8334C5.83332 13.6941 5.5617 14.6677 5.13028 15.6507C4.70359 16.623 4.15188 17.5343 3.66499 18.2513C2.77886 19.5563 3.32751 21.6185 5.13991 21.9454C6.32501 22.1591 7.99984 22.4135 9.97099 22.5782C9.96863 22.6352 9.96744 22.6925 9.96744 22.7501C9.96744 25.0052 11.7956 26.8334 14.0508 26.8334C16.3059 26.8334 18.1341 25.0052 18.1341 22.7501C18.1341 22.6896 18.1328 22.6295 18.1302 22.5696C20.0575 22.4048 21.6953 22.1555 22.8601 21.9454C24.6725 21.6185 25.2211 19.5563 24.335 18.2513C23.8481 17.5343 23.2964 16.623 22.8697 15.6507C22.4383 14.6677 22.1666 13.6941 22.1666 12.8334V9.33313C22.1666 6.11137 19.5549 3.50008 16.3333 3.50008H15.75V2.33341C15.75 1.68908 15.2277 1.16675 14.5833 1.16675H13.4167ZM14 22.7501C14.5965 22.7501 15.1809 22.7382 15.7497 22.7168C15.7589 23.6552 14.9965 24.4493 14.0508 24.4493C13.1072 24.4493 12.3437 23.6576 12.3518 22.7205C12.8885 22.7396 13.4389 22.7501 14 22.7501ZM11.6666 5.83341C9.73356 5.83341 8.16665 7.40022 8.16665 9.33313V12.8334C8.16665 14.1441 7.76471 15.4541 7.2669 16.5884C6.76437 17.7335 6.13116 18.7731 5.59532 19.5622C5.58341 19.5797 5.57786 19.5965 5.57597 19.6133C5.57429 19.6283 5.57572 19.6423 5.57861 19.6535C7.42514 19.9855 10.5005 20.4167 14 20.4167C17.4995 20.4167 20.5748 19.9855 22.4213 19.6535C22.4242 19.6423 22.4257 19.6283 22.424 19.6133C22.4221 19.5965 22.4166 19.5797 22.4046 19.5622C21.8688 18.7731 21.2356 17.7335 20.7331 16.5884C20.2352 15.4541 19.8333 14.1441 19.8333 12.8334V9.33313C19.8333 7.40022 18.2664 5.83341 16.3333 5.83341H11.6666Z" fill="black"/>
</svg>
