<svg width="10" height="10" viewBox="0 0 10 10" fill="none" xmlns="http://www.w3.org/2000/svg">
<path d="M0.828931 0.838804C0.503494 1.16424 0.503494 1.69188 0.828932 2.01732L3.81656 5.00494L0.82893 7.99257C0.503493 8.31801 0.503494 8.84564 0.828931 9.17108C1.15437 9.49652 1.68201 9.49652 2.00744 9.17108L4.99507 6.18345L7.98268 9.17107C8.30812 9.49651 8.83576 9.49651 9.1612 9.17107C9.48663 8.84563 9.48663 8.318 9.1612 7.99256L6.17358 5.00494L9.1612 2.01733C9.48663 1.69189 9.48663 1.16425 9.1612 0.838816C8.83576 0.51338 8.30812 0.51338 7.98268 0.838817L4.99507 3.82643L2.00744 0.838804C1.68201 0.513367 1.15437 0.513367 0.828931 0.838804Z" fill="white"/>
</svg>
