<svg width="32" height="32" viewBox="0 0 32 32" fill="none" xmlns="http://www.w3.org/2000/svg">
<path fill-rule="evenodd" clip-rule="evenodd" d="M28 10.6667C28 8.45754 26.2091 6.66668 24 6.66668H13.3333C11.1242 6.66668 9.33333 8.45754 9.33333 10.6667V26.6667C9.33333 28.8758 11.1242 30.6667 13.3333 30.6667H24C26.2091 30.6667 28 28.8758 28 26.6667V10.6667ZM25.3333 10.6667C25.3333 9.9303 24.7364 9.33334 24 9.33334H13.3333C12.597 9.33334 12 9.9303 12 10.6667V26.6667C12 27.4031 12.597 28 13.3333 28H24C24.7364 28 25.3333 27.4031 25.3333 26.6667V10.6667Z" fill="#6A6FD5"/>
<path d="M8 4.00001H21.3333C22.0697 4.00001 22.6667 3.40306 22.6667 2.66668C22.6667 1.9303 22.0697 1.33334 21.3333 1.33334H8C5.79086 1.33334 4 3.12421 4 5.33334V24C4 24.7364 4.59695 25.3333 5.33333 25.3333C6.06971 25.3333 6.66667 24.7364 6.66667 24V5.33334C6.66667 4.59696 7.26362 4.00001 8 4.00001Z" fill="#6A6FD5"/>
</svg>
