<svg width="28" height="28" viewBox="0 0 28 28" fill="none" xmlns="http://www.w3.org/2000/svg">
<path fill-rule="evenodd" clip-rule="evenodd" d="M7 1.16699C5.067 1.16699 3.5 2.734 3.5 4.66699V23.3337C3.5 25.2667 5.067 26.8337 7 26.8337H21C22.933 26.8337 24.5 25.2667 24.5 23.3337V10.3002C24.5 9.3719 24.1313 8.48166 23.4749 7.82528L17.8417 2.19212C17.1853 1.53574 16.2951 1.16699 15.3668 1.16699H7ZM5.83333 4.66699C5.83333 4.02266 6.35567 3.50033 7 3.50033H14V9.33366C14 10.6223 15.0447 11.667 16.3333 11.667H22.1667V23.3337C22.1667 23.978 21.6443 24.5003 21 24.5003H7C6.35567 24.5003 5.83333 23.978 5.83333 23.3337V4.66699ZM21.6834 9.33366L16.3333 3.98357V9.33366H21.6834Z" fill="#6A6FD5"/>
</svg>
