<svg width="28" height="28" viewBox="0 0 28 28" fill="none" xmlns="http://www.w3.org/2000/svg">
<path fill-rule="evenodd" clip-rule="evenodd" d="M7 1.16602C5.067 1.16602 3.5 2.73302 3.5 4.66602V23.3327C3.5 25.2657 5.067 26.8327 7 26.8327H21C22.933 26.8327 24.5 25.2657 24.5 23.3327V10.2992C24.5 9.37092 24.1313 8.48068 23.4749 7.82431L17.8417 2.19114C17.1853 1.53476 16.2951 1.16602 15.3668 1.16602H7ZM5.83333 4.66602C5.83333 4.02168 6.35567 3.49935 7 3.49935H14V9.33268C14 10.6213 15.0447 11.666 16.3333 11.666H22.1667V23.3327C22.1667 23.977 21.6443 24.4993 21 24.4993H7C6.35567 24.4993 5.83333 23.977 5.83333 23.3327V4.66602ZM21.6834 9.33268L16.3333 3.9826V9.33268H21.6834Z" fill="#6A6FD5"/>
</svg>
