<svg width="28" height="28" viewBox="0 0 28 28" fill="none" xmlns="http://www.w3.org/2000/svg">
<path d="M26.8332 14.0001C26.8332 21.0877 21.0875 26.8334 13.9998 26.8334C6.91218 26.8334 1.1665 21.0877 1.1665 14.0001C1.1665 6.91243 6.91218 1.16675 13.9998 1.16675C21.0875 1.16675 26.8332 6.91243 26.8332 14.0001ZM3.50781 14.0001C3.50781 19.7947 8.20525 24.4921 13.9998 24.4921C19.7944 24.4921 24.4919 19.7947 24.4919 14.0001C24.4919 8.20549 19.7944 3.50805 13.9998 3.50805C8.20525 3.50805 3.50781 8.20549 3.50781 14.0001Z" fill="black"/>
<path d="M15.7498 21.0001C15.7498 21.9666 14.9663 22.7501 13.9998 22.7501C13.0333 22.7501 12.2498 21.9666 12.2498 21.0001C12.2498 20.0336 13.0333 19.2501 13.9998 19.2501C14.9663 19.2501 15.7498 20.0336 15.7498 21.0001Z" fill="black"/>
<path d="M12.8332 14.0001V16.3334C12.8332 16.3334 12.8332 17.5001 13.9998 17.5001C15.1665 17.5001 15.1665 16.3334 15.1665 16.3334V14.0001C15.1665 14.0001 15.7256 13.8401 15.9399 13.7531C15.9399 13.7531 16.3296 13.614 16.6024 13.4046C16.8751 13.1953 17.1219 12.9466 17.3428 12.6587C17.5766 12.3708 17.7584 12.0372 17.8883 11.6577C18.0182 11.2782 18.0832 10.9712 18.0832 10.5001C18.0832 9.71493 17.9078 8.90962 17.5571 8.32075C17.2194 7.7188 16.7388 7.25425 16.1153 6.9271C15.4918 6.58687 14.7644 6.41675 13.933 6.41675C13.4135 6.41675 12.9523 6.48218 12.5497 6.61304C12.147 6.73081 11.7898 6.89439 11.478 7.10376C11.1793 7.30005 10.926 7.52251 10.7181 7.77114C10.5233 8.00669 10.3674 8.23569 10.2505 8.45815C10.1336 8.68061 10.0557 8.8769 10.0167 9.04702C9.93877 9.29565 9.90629 9.49849 9.91928 9.65552C9.94526 9.81255 10.0232 9.94341 10.1531 10.0481C10.283 10.1528 10.4843 10.264 10.7571 10.3818C11.0429 10.4734 11.2637 10.5061 11.4196 10.4799C11.5884 10.4538 11.7248 10.3752 11.8287 10.2444C11.8287 10.2444 12.3826 9.45672 12.5385 9.29969C12.7074 9.12958 12.9152 8.99872 13.162 8.90711C13.4088 8.80243 13.6881 8.75008 13.9998 8.75008C14.6753 8.75008 15.1754 8.91366 15.5001 9.2408C15.8378 9.55487 15.9399 9.81909 15.9399 10.421C15.9399 10.8267 15.8685 11.1539 15.7256 11.4025C15.5827 11.6511 15.3943 11.854 15.1605 12.011C15.1605 12.011 14.843 12.1323 14.5832 12.2501C14.3364 12.3548 13.8833 12.5279 13.6495 12.6587C13.4287 12.7765 13.3049 12.9003 13.162 13.0835C13.0191 13.2667 12.8332 13.686 12.8332 14.0001Z" fill="black"/>
</svg>
