<svg width="56" height="56" viewBox="0 0 56 56" fill="none" xmlns="http://www.w3.org/2000/svg">
<path fill-rule="evenodd" clip-rule="evenodd" d="M55.5 8C55.5 3.85786 52.1421 0.5 48 0.5H8C3.85786 0.5 0.5 3.85786 0.5 8V48C0.5 52.1421 3.85786 55.5 8 55.5H48C52.1421 55.5 55.5 52.1421 55.5 48V8ZM50.5 8C50.5 6.61929 49.3807 5.5 48 5.5H8C6.61929 5.5 5.5 6.61929 5.5 8V48C5.5 49.3807 6.61929 50.5 8 50.5H48C49.3807 50.5 50.5 49.3807 50.5 48V8Z" fill="#6A6FD5"/>
<path d="M10.0166 41.8029L20.8053 22.0237C21.7528 20.2865 24.2472 20.2865 25.1947 22.0237L33.1163 36.5465L35.8294 31.7986C36.7891 30.119 39.2109 30.119 40.1706 31.7986L45.8627 41.7597C46.815 43.4263 45.6116 45.5 43.6921 45.5H12.2114C10.3137 45.5 9.10792 43.4688 10.0166 41.8029Z" fill="#6A6FD5"/>
<path d="M43 18C43 20.7614 40.7614 23 38 23C35.2386 23 33 20.7614 33 18C33 15.2386 35.2386 13 38 13C40.7614 13 43 15.2386 43 18Z" fill="#6A6FD5"/>
</svg>
