<svg width="28" height="28" viewBox="0 0 28 28" fill="none" xmlns="http://www.w3.org/2000/svg">
<path fill-rule="evenodd" clip-rule="evenodd" d="M16.9166 12.2503V6.41699C16.9166 4.80616 15.6108 3.50033 14 3.50033C12.3891 3.50033 11.0833 4.80616 11.0833 6.41699V12.2503C11.0833 13.8612 12.3891 15.167 14 15.167C15.6108 15.167 16.9166 13.8612 16.9166 12.2503ZM14 1.16699C11.1005 1.16699 8.74997 3.5175 8.74997 6.41699V12.2503C8.74997 15.1498 11.1005 17.5003 14 17.5003C16.8995 17.5003 19.25 15.1498 19.25 12.2503V6.41699C19.25 3.5175 16.8995 1.16699 14 1.16699Z" fill="#0F0F0F"/>
<path d="M14 19.8337C6.41662 19.8337 6.99995 14.0003 6.99995 14.0003C6.99995 14.0003 6.99998 12.8337 5.83331 12.8337C4.66665 12.8337 4.66662 14.0003 4.66662 14.0003C4.66662 14.0003 4.13012 21.5116 12.8333 22.127V25.667C12.8333 26.3113 13.3556 26.8337 14 26.8337C14.6443 26.8337 15.1666 26.3113 15.1666 25.667V22.127C23.8698 21.5116 23.3333 14.0003 23.3333 14.0003C23.3333 14.0003 23.3333 12.8337 22.1666 12.8337C21 12.8337 20.9999 14.0003 20.9999 14.0003C20.9999 14.0003 21.5833 19.8337 14 19.8337Z" fill="#0F0F0F"/>
</svg>
