<svg width="56" height="36" viewBox="0 0 56 36" fill="none" xmlns="http://www.w3.org/2000/svg">
<path fill-rule="evenodd" clip-rule="evenodd" d="M12.865 1.9873C7.82134 -1.60042 0.5 1.70896 0.5 7.57656V28.4234C0.5 34.291 7.82132 37.6004 12.865 34.0127L25.5 25.0251V28.4234C25.5 34.291 32.8213 37.6004 37.865 34.0127L52.5185 23.5893C56.4938 20.7615 56.4938 15.2385 52.5185 12.4107L37.865 1.9873C32.8213 -1.60042 25.5 1.70896 25.5 7.57656V10.9749L12.865 1.9873ZM5.61549 7.57656C5.61549 5.6207 8.05594 4.51756 9.73718 5.71348L24.3907 16.1369C25.7158 17.0795 25.7158 18.9205 24.3907 19.8631L9.73717 30.2865C8.05593 31.4824 5.61549 30.3793 5.61549 28.4234V7.57656ZM30.6155 7.57656C30.6155 5.6207 33.0559 4.51756 34.7372 5.71348L49.3907 16.1369C50.7158 17.0795 50.7158 18.9205 49.3907 19.8631L34.7372 30.2865C33.0559 31.4824 30.6155 30.3793 30.6155 28.4234V7.57656Z" fill="#0F0F0F"/>
</svg>
