<svg width="50" height="48" viewBox="0 0 50 48" fill="none" xmlns="http://www.w3.org/2000/svg">
<path d="M7.50002 0C3.35788 -9.87561e-08 1.91071e-05 3.35786 1.63913e-05 7.49999L0 32.5C-2.7158e-06 36.6421 3.35786 40 7.5 40H15C16.3807 40 17.5 38.8807 17.5 37.5C17.5 36.1193 16.3807 35 15 35H7.49999C6.11928 35 4.99999 33.8807 4.99999 32.5V7.5C4.99999 6.11929 6.11928 5 7.49999 5L42.5 5C43.8807 5 45 6.11929 45 7.5L45 32.5C45 33.8807 43.8807 35 42.5 35H30.0066L33.2053 31.7902C34.1834 30.8088 34.1834 29.2175 33.2053 28.2361C32.2273 27.2546 30.6415 27.2546 29.6635 28.2361L23.9843 33.9349L23.9513 33.9683C22.0099 35.931 22.0143 39.1014 23.9647 41.0585L29.6509 46.7644C30.6283 47.7452 32.2131 47.7452 33.1905 46.7644C34.168 45.7836 34.168 44.1933 33.1905 43.2125L29.9891 40H42.5C46.6421 40 50 36.6421 50 32.5L50 7.5C50 3.35787 46.6421 9.33221e-07 42.5 8.34465e-07L7.50002 0Z" fill="#B1B1B1"/>
</svg>
