<svg width="26" height="24" viewBox="0 0 26 24" fill="none" xmlns="http://www.w3.org/2000/svg">
<path fill-rule="evenodd" clip-rule="evenodd" d="M0.47576 3.1633C0.216674 1.3497 2.05297 -0.0413892 3.72869 0.699045L24.473 9.86514C26.3267 10.6842 26.3267 13.3146 24.473 14.1337L3.72869 23.2998C2.05298 24.0402 0.216673 22.6491 0.47576 20.8355L1.32278 14.9064C1.40328 14.3429 1.81694 13.8842 2.36916 13.7462L9.35628 11.9994L2.36916 10.2526C1.81694 10.1146 1.40328 9.65591 1.32278 9.09242L0.47576 3.1633ZM23.53 11.9994L2.78564 2.83331L3.54391 8.14117L13.9968 10.7544C15.2929 11.0784 15.2929 12.9204 13.9968 13.2444L3.54391 15.8576L2.78564 21.1655L23.53 11.9994Z" fill="#6A6FD5"/>
</svg>
