<svg width="28" height="28" viewBox="0 0 28 28" fill="none" xmlns="http://www.w3.org/2000/svg">
<path fill-rule="evenodd" clip-rule="evenodd" d="M4.19928 7.26157C3.92234 5.6238 5.46003 4.25419 7.08524 4.69106L8.31573 5.02182C9.29233 5.28434 10.3286 4.88948 10.872 4.04775L12.0514 2.22104C12.959 0.815319 15.041 0.815316 15.9486 2.22104L17.128 4.04774C17.6714 4.88948 18.7077 5.28434 19.6843 5.02182L20.9148 4.69106C22.54 4.25419 24.0777 5.6238 23.8007 7.26157L23.4972 9.0565C23.3412 9.97899 23.7735 10.9017 24.5871 11.3828L25.712 12.048C27.2071 12.9322 27.2071 15.068 25.712 15.9521L24.5871 16.6173C23.7735 17.0985 23.3412 18.0212 23.4972 18.9437L23.8007 20.7386C24.0777 22.3764 22.54 23.746 20.9148 23.3091L19.6843 22.9783C18.7077 22.7158 17.6714 23.1107 17.128 23.9524L15.9486 25.7791C15.041 27.1848 12.959 27.1848 12.0514 25.7791L10.872 23.9524C10.3286 23.1107 9.29233 22.7158 8.31573 22.9783L7.08524 23.3091C5.46003 23.746 3.92234 22.3764 4.19928 20.7386L4.50279 18.9437C4.65878 18.0212 4.22649 17.0985 3.41286 16.6173L2.28802 15.9521C0.792882 15.068 0.792884 12.9322 2.28802 12.048L3.41287 11.3828C4.22649 10.9017 4.65878 9.97899 4.50279 9.0565L4.19928 7.26157ZM10.5355 7.17066H7.07099V10.5854L3.60649 14.0001L7.07099 17.4148V20.8295H10.5355L14 24.2442L17.4645 20.8295H20.929V17.4148L24.3935 14.0001L20.929 10.5854V7.17066H17.4645L14 3.75594L10.5355 7.17066Z" fill="black"/>
<path d="M19.1934 14.0001C19.1934 16.8289 16.8667 19.1222 13.9967 19.1222C11.1266 19.1222 8.7999 16.8289 8.7999 14.0001C8.7999 11.1712 11.1266 8.87801 13.9967 8.87801C16.8667 8.87801 19.1934 11.1712 19.1934 14.0001ZM11.1062 14.0001C11.1062 15.5735 12.4003 16.849 13.9967 16.849C15.593 16.849 16.8871 15.5735 16.8871 14.0001C16.8871 12.4267 15.593 11.1512 13.9967 11.1512C12.4003 11.1512 11.1062 12.4267 11.1062 14.0001Z" fill="black"/>
</svg>
