<svg width="28" height="28" viewBox="0 0 28 28" fill="none" xmlns="http://www.w3.org/2000/svg">
<path d="M10.4999 12.8334C10.4999 12.1891 11.0222 11.6667 11.6665 11.6667C12.3109 11.6667 12.8332 12.1891 12.8332 12.8334V19.8334C12.8332 20.4777 12.3109 21.0001 11.6665 21.0001C11.0222 21.0001 10.4999 20.4777 10.4999 19.8334V12.8334Z" fill="black"/>
<path d="M16.3332 11.6667C15.6889 11.6667 15.1665 12.1891 15.1665 12.8334V19.8334C15.1665 20.4777 15.6889 21.0001 16.3332 21.0001C16.9775 21.0001 17.4999 20.4777 17.4999 19.8334V12.8334C17.4999 12.1891 16.9775 11.6667 16.3332 11.6667Z" fill="black"/>
<path fill-rule="evenodd" clip-rule="evenodd" d="M9.95284 1.16675C6.44411 1.16675 3.72935 4.24197 4.16456 7.72362L6.17005 23.7675C6.38898 25.519 7.87789 26.8334 9.64302 26.8334H18.3567C20.1218 26.8334 21.6107 25.519 21.8297 23.7675L23.8352 7.72362C24.2704 4.24197 21.5556 1.16675 18.0469 1.16675H9.95284ZM6.65159 5.83341C7.12896 4.4865 8.41356 3.50008 9.95284 3.50008H18.0469C19.5862 3.50008 20.8708 4.4865 21.3481 5.83341H6.65159ZM6.57144 8.16675L8.48536 23.4781C8.55834 24.062 9.05464 24.5001 9.64302 24.5001H18.3567C18.9451 24.5001 19.4414 24.062 19.5144 23.4781L21.4283 8.16675H6.57144Z" fill="black"/>
</svg>
