<svg width="60" height="60" viewBox="0 0 60 60" fill="none" xmlns="http://www.w3.org/2000/svg">
<path d="M22.5002 27.5C22.5002 26.1193 23.6195 25 25.0002 25C26.3809 25 27.5002 26.1193 27.5002 27.5V42.5C27.5002 43.8807 26.3809 45 25.0002 45C23.6195 45 22.5002 43.8807 22.5002 42.5V27.5Z" fill="#B1B1B1"/>
<path d="M35.0002 25C33.6195 25 32.5002 26.1193 32.5002 27.5V42.5C32.5002 43.8807 33.6195 45 35.0002 45C36.3809 45 37.5002 43.8807 37.5002 42.5V27.5C37.5002 26.1193 36.3809 25 35.0002 25Z" fill="#B1B1B1"/>
<path fill-rule="evenodd" clip-rule="evenodd" d="M21.328 2.5C13.8093 2.5 7.99196 9.08977 8.92454 16.5504L13.222 50.9303C13.6912 54.6835 16.8817 57.5 20.6641 57.5H39.3363C43.1187 57.5 46.3092 54.6835 46.7784 50.9303L51.0758 16.5504C52.0084 9.08977 46.1911 2.5 38.6724 2.5H21.328ZM14.2539 12.5C15.2768 9.61375 18.0296 7.5 21.328 7.5H38.6724C41.9708 7.5 44.7235 9.61375 45.7465 12.5H14.2539ZM14.0821 17.5L18.1834 50.3101C18.3398 51.5612 19.4033 52.5 20.6641 52.5H39.3363C40.5971 52.5 41.6606 51.5612 41.817 50.3101L45.9182 17.5H14.0821Z" fill="#B1B1B1"/>
</svg>
