<svg width="28" height="28" viewBox="0 0 28 28" fill="none" xmlns="http://www.w3.org/2000/svg">
<path fill-rule="evenodd" clip-rule="evenodd" d="M14 14.0001C17.2217 14.0001 19.8333 11.1272 19.8333 7.58341C19.8333 4.03959 17.2217 1.16675 14 1.16675C10.7783 1.16675 8.16667 4.03959 8.16667 7.58341C8.16667 11.1272 10.7783 14.0001 14 14.0001ZM14 11.4334C12.067 11.4334 10.5 9.70971 10.5 7.58341C10.5 5.45712 12.067 3.73341 14 3.73341C15.933 3.73341 17.5 5.45712 17.5 7.58341C17.5 9.70971 15.933 11.4334 14 11.4334Z" fill="black"/>
<path fill-rule="evenodd" clip-rule="evenodd" d="M22.2867 16.4602C21.3038 15.4741 19.7831 15.2613 18.5688 15.9819C18.3466 16.1137 18.1511 16.2344 17.9709 16.3456C17.4926 16.6408 17.1214 16.8699 16.6429 17.0665C16.0417 17.3135 15.2641 17.5001 14 17.5001C12.748 17.5001 11.9575 17.324 11.3471 17.0856C10.8075 16.8748 10.3813 16.6099 9.81965 16.2609C9.71012 16.1928 9.59523 16.1214 9.47356 16.0467C8.25518 15.2988 6.69041 15.4726 5.67484 16.499C5.23184 16.9467 4.71375 17.5256 4.29905 18.1565C3.9037 18.7579 3.5 19.5578 3.5 20.4168V23.3338C3.5 25.267 5.06723 26.8334 7 26.8334H21C22.9328 26.8334 24.5 25.267 24.5 23.3338V20.4168C24.5 19.5465 24.0855 18.7358 23.6828 18.129C23.2598 17.4916 22.7327 16.9078 22.2867 16.4602ZM19.7595 17.9886C20.0385 17.823 20.391 17.8636 20.634 18.1073C21.025 18.4997 21.4345 18.9609 21.7387 19.4193C22.0632 19.9083 22.1667 20.2441 22.1667 20.4168V23.3338C22.1667 23.9779 21.6446 24.5001 21 24.5001H7C6.35544 24.5001 5.83333 23.9779 5.83333 23.3338V20.4168C5.83333 20.2475 5.93307 19.9185 6.24881 19.4382C6.5452 18.9874 6.94584 18.5319 7.33342 18.1402C7.57647 17.8946 7.94623 17.8471 8.25287 18.0353C8.34938 18.0946 8.44768 18.1559 8.5481 18.2186C9.11095 18.57 9.74071 18.9631 10.4981 19.259C11.4252 19.6212 12.5115 19.8334 14 19.8334C15.5169 19.8334 16.6032 19.6054 17.5297 19.2247C18.2007 18.949 18.7926 18.583 19.3152 18.2598C19.4692 18.1645 19.6173 18.073 19.7595 17.9886Z" fill="black"/>
</svg>
