<svg width="28" height="28" viewBox="0 0 28 28" fill="none" xmlns="http://www.w3.org/2000/svg">
<path fill-rule="evenodd" clip-rule="evenodd" d="M14 14.0003C17.2217 14.0003 19.8333 11.1275 19.8333 7.58366C19.8333 4.03983 17.2217 1.16699 14 1.16699C10.7783 1.16699 8.16667 4.03983 8.16667 7.58366C8.16667 11.1275 10.7783 14.0003 14 14.0003ZM14 11.4337C12.067 11.4337 10.5 9.70995 10.5 7.58366C10.5 5.45736 12.067 3.73366 14 3.73366C15.933 3.73366 17.5 5.45736 17.5 7.58366C17.5 9.70995 15.933 11.4337 14 11.4337Z" fill="#6A6FD5"/>
<path fill-rule="evenodd" clip-rule="evenodd" d="M22.2867 16.4605C21.3038 15.4743 19.7831 15.2616 18.5688 15.9821C18.3466 16.114 18.1511 16.2346 17.9709 16.3459C17.4926 16.641 17.1214 16.8701 16.6429 17.0667C16.0417 17.3137 15.2641 17.5003 14 17.5003C12.748 17.5003 11.9575 17.3243 11.3471 17.0858C10.8075 16.875 10.3813 16.6102 9.81965 16.2611C9.71012 16.1931 9.59523 16.1217 9.47356 16.047C8.25518 15.2991 6.69041 15.4729 5.67484 16.4992C5.23184 16.9469 4.71375 17.5259 4.29905 18.1567C3.9037 18.7581 3.5 19.5581 3.5 20.417V23.334C3.5 25.2672 5.06723 26.8337 7 26.8337H21C22.9328 26.8337 24.5 25.2672 24.5 23.334V20.417C24.5 19.5468 24.0855 18.7361 23.6828 18.1293C23.2598 17.4919 22.7327 16.908 22.2867 16.4605ZM19.7595 17.9888C20.0385 17.8232 20.391 17.8638 20.634 18.1076C21.025 18.5 21.4345 18.9612 21.7387 19.4195C22.0632 19.9085 22.1667 20.2443 22.1667 20.417V23.334C22.1667 23.9781 21.6446 24.5003 21 24.5003H7C6.35544 24.5003 5.83333 23.9781 5.83333 23.334V20.417C5.83333 20.2477 5.93307 19.9188 6.24881 19.4385C6.5452 18.9876 6.94584 18.5321 7.33342 18.1404C7.57647 17.8948 7.94623 17.8473 8.25287 18.0356C8.34938 18.0948 8.44768 18.1562 8.5481 18.2188C9.11095 18.5702 9.74071 18.9634 10.4981 19.2592C11.4252 19.6214 12.5115 19.8337 14 19.8337C15.5169 19.8337 16.6032 19.6056 17.5297 19.225C18.2007 18.9493 18.7926 18.5832 19.3152 18.26C19.4692 18.1648 19.6173 18.0732 19.7595 17.9888Z" fill="#6A6FD5"/>
</svg>
