<svg width="28" height="28" viewBox="0 0 28 28" fill="none" xmlns="http://www.w3.org/2000/svg">
<path d="M8.27966 8.29274C7.83335 8.73906 7.83335 9.46267 8.27966 9.90899L12.377 14.0063L8.27966 18.1036C7.83335 18.5499 7.83335 19.2736 8.27966 19.7199C8.72598 20.1662 9.44959 20.1662 9.89591 19.7199L13.9932 15.6225L18.0905 19.7199C18.5368 20.1662 19.2605 20.1662 19.7068 19.7199C20.1531 19.2735 20.1531 18.5499 19.7068 18.1036L15.6095 14.0063L19.7068 9.909C20.1531 9.46269 20.1531 8.73907 19.7068 8.29276C19.2605 7.84645 18.5368 7.84645 18.0905 8.29276L13.9932 12.3901L9.89591 8.29274C9.44959 7.84643 8.72598 7.84643 8.27966 8.29274Z" fill="#6A6FD5"/>
</svg>
