<svg width="28" height="28" viewBox="0 0 28 28" fill="none" xmlns="http://www.w3.org/2000/svg">
<path fill-rule="evenodd" clip-rule="evenodd" d="M7 1.16675C5.067 1.16675 3.5 2.73375 3.5 4.66675V23.3334C3.5 25.2664 5.067 26.8334 7 26.8334H21C22.933 26.8334 24.5 25.2664 24.5 23.3334V10.2999C24.5 9.37166 24.1313 8.48142 23.4749 7.82504L17.8417 2.19187C17.1853 1.5355 16.2951 1.16675 15.3668 1.16675H7ZM5.83333 4.66675C5.83333 4.02242 6.35567 3.50008 7 3.50008H14V9.33341C14 10.6221 15.0447 11.6667 16.3333 11.6667H22.1667V23.3334C22.1667 23.9777 21.6443 24.5001 21 24.5001H7C6.35567 24.5001 5.83333 23.9777 5.83333 23.3334V4.66675ZM21.6834 9.33341L16.3333 3.98333V9.33341H21.6834Z" fill="black"/>
</svg>
