<svg width="16" height="16" viewBox="0 0 16 16" fill="none" xmlns="http://www.w3.org/2000/svg">
<path fill-rule="evenodd" clip-rule="evenodd" d="M13.8985 1.25278C13.1175 0.471731 11.8512 0.471729 11.0701 1.25278L1.63171 10.6912C1.35251 10.9704 1.1622 11.326 1.08476 11.7132L0.693382 13.67C0.506789 14.603 1.32935 15.4256 2.26231 15.239L4.2192 14.8476C4.60638 14.7702 4.96198 14.5799 5.24118 14.3007L14.6796 4.86225C15.4606 4.08121 15.4606 2.81488 14.6796 2.03383L13.8985 1.25278ZM12.0129 2.19559C12.2733 1.93524 12.6954 1.93524 12.9557 2.19559L13.7368 2.97664C13.9971 3.23699 13.9971 3.6591 13.7368 3.91945L11.9557 5.7005L10.2319 3.97665L12.0129 2.19559ZM9.28905 4.91946L2.57452 11.634C2.48145 11.7271 2.41801 11.8456 2.3922 11.9746L2.00082 13.9315L3.95771 13.5402C4.08677 13.5143 4.20531 13.4509 4.29837 13.3578L11.0129 6.64331L9.28905 4.91946Z" fill="#6A6FD5"/>
</svg>
