<svg width="22" height="22" viewBox="0 0 22 22" fill="none" xmlns="http://www.w3.org/2000/svg">
<path fill-rule="evenodd" clip-rule="evenodd" d="M19.426 1.36223C18.3102 0.246446 16.5012 0.246443 15.3854 1.36223L1.90195 14.8457C1.50309 15.2445 1.23122 15.7525 1.1206 16.3056L0.561486 19.1012C0.294925 20.434 1.47001 21.6091 2.80281 21.3425L5.59837 20.7834C6.15149 20.6728 6.65948 20.4009 7.05834 20.002L20.5418 6.51862C21.6576 5.40284 21.6576 3.5938 20.5418 2.47801L19.426 1.36223ZM16.7322 2.7091C17.1042 2.33717 17.7072 2.33717 18.0791 2.7091L19.1949 3.82488C19.5668 4.19681 19.5668 4.79982 19.1949 5.17175L16.6505 7.71612L14.1879 5.25347L16.7322 2.7091ZM12.841 6.60034L3.24882 16.1925C3.11587 16.3255 3.02524 16.4948 2.98837 16.6792L2.42926 19.4747L5.22482 18.9156C5.40919 18.8788 5.57852 18.7881 5.71147 18.6552L15.3037 9.06299L12.841 6.60034Z" fill="white"/>
</svg>
