<svg width="28" height="28" viewBox="0 0 28 28" fill="none" xmlns="http://www.w3.org/2000/svg">
<path d="M26.8332 14.0003C26.8332 21.088 21.0875 26.8337 13.9998 26.8337C6.91218 26.8337 1.1665 21.088 1.1665 14.0003C1.1665 6.91267 6.91218 1.16699 13.9998 1.16699C21.0875 1.16699 26.8332 6.91267 26.8332 14.0003ZM3.50781 14.0003C3.50781 19.7949 8.20525 24.4924 13.9998 24.4924C19.7944 24.4924 24.4919 19.7949 24.4919 14.0003C24.4919 8.20574 19.7944 3.50829 13.9998 3.50829C8.20525 3.50829 3.50781 8.20574 3.50781 14.0003Z" fill="#6A6FD5"/>
<path d="M15.7498 21.0003C15.7498 21.9668 14.9663 22.7503 13.9998 22.7503C13.0333 22.7503 12.2498 21.9668 12.2498 21.0003C12.2498 20.0338 13.0333 19.2503 13.9998 19.2503C14.9663 19.2503 15.7498 20.0338 15.7498 21.0003Z" fill="#6A6FD5"/>
<path d="M12.8332 14.0003V16.3337C12.8332 16.3337 12.8332 17.5003 13.9998 17.5003C15.1665 17.5003 15.1665 16.3337 15.1665 16.3337V14.0003C15.1665 14.0003 15.7256 13.8403 15.9399 13.7534C15.9399 13.7534 16.3296 13.6143 16.6024 13.4049C16.8751 13.1955 17.1219 12.9469 17.3428 12.659C17.5766 12.3711 17.7584 12.0374 17.8883 11.6579C18.0182 11.2784 18.0832 10.9714 18.0832 10.5003C18.0832 9.71517 17.9078 8.90986 17.5571 8.321C17.2194 7.71904 16.7388 7.25449 16.1153 6.92735C15.4918 6.58711 14.7644 6.41699 13.933 6.41699C13.4135 6.41699 12.9523 6.48242 12.5497 6.61328C12.147 6.73106 11.7898 6.89463 11.478 7.104C11.1793 7.30029 10.926 7.52275 10.7181 7.77139C10.5233 8.00693 10.3674 8.23594 10.2505 8.4584C10.1336 8.68086 10.0557 8.87715 10.0167 9.04727C9.93877 9.2959 9.90629 9.49873 9.91928 9.65576C9.94526 9.81279 10.0232 9.94365 10.1531 10.0483C10.283 10.153 10.4843 10.2643 10.7571 10.382C11.0429 10.4736 11.2637 10.5063 11.4196 10.4802C11.5884 10.454 11.7248 10.3755 11.8287 10.2446C11.8287 10.2446 12.3826 9.45697 12.5385 9.29994C12.7074 9.12982 12.9152 8.99896 13.162 8.90736C13.4088 8.80267 13.6881 8.75033 13.9998 8.75033C14.6753 8.75033 15.1754 8.9139 15.5001 9.24105C15.8378 9.55511 15.9399 9.81933 15.9399 10.4213C15.9399 10.827 15.8685 11.1541 15.7256 11.4027C15.5827 11.6514 15.3943 11.8542 15.1605 12.0112C15.1605 12.0112 14.843 12.1326 14.5832 12.2503C14.3364 12.355 13.8833 12.5281 13.6495 12.659C13.4287 12.7768 13.3049 12.9005 13.162 13.0837C13.0191 13.2669 12.8332 13.6863 12.8332 14.0003Z" fill="#6A6FD5"/>
</svg>
