<svg width="40" height="40" viewBox="0 0 40 40" fill="none" xmlns="http://www.w3.org/2000/svg">
<path fill-rule="evenodd" clip-rule="evenodd" d="M38.3334 6.66602C38.3334 3.90459 36.0948 1.66602 33.3334 1.66602H6.66669C3.90526 1.66602 1.66669 3.90459 1.66669 6.66602V33.3327C1.66669 36.0941 3.90526 38.3327 6.66669 38.3327H33.3334C36.0948 38.3327 38.3334 36.0941 38.3334 33.3327V6.66602ZM35 6.66602C35 5.74554 34.2538 4.99935 33.3334 4.99935H6.66669C5.74621 4.99935 5.00002 5.74554 5.00002 6.66602V33.3327C5.00002 34.2532 5.74621 34.9994 6.66669 34.9994H33.3334C34.2538 34.9994 35 34.2532 35 33.3327V6.66602Z" fill="#009ACA"/>
<path d="M8.0111 29.2013L15.2035 16.0151C15.8352 14.857 17.4982 14.857 18.1298 16.0151L23.4109 25.697L25.2196 22.5317C25.8594 21.412 27.4739 21.412 28.1138 22.5317L31.9085 29.1725C32.5434 30.2835 31.7411 31.666 30.4614 31.666H9.47426C8.20916 31.666 7.4053 30.3119 8.0111 29.2013Z" fill="#009ACA"/>
<path d="M30 13.3327C30 15.1736 28.5076 16.666 26.6667 16.666C24.8257 16.666 23.3334 15.1736 23.3334 13.3327C23.3334 11.4917 24.8257 9.99935 26.6667 9.99935C28.5076 9.99935 30 11.4917 30 13.3327Z" fill="#009ACA"/>
</svg>
