<svg width="50" height="50" viewBox="0 0 50 50" fill="none" xmlns="http://www.w3.org/2000/svg">
<g opacity="0.7">
<path fill-rule="evenodd" clip-rule="evenodd" d="M50 6.81818C50 3.0526 46.9474 0 43.1818 0H6.81818C3.0526 0 0 3.0526 0 6.81818V43.1818C0 46.9474 3.0526 50 6.81818 50H43.1818C46.9474 50 50 46.9474 50 43.1818V6.81818ZM45.4545 6.81818C45.4545 5.56299 44.437 4.54545 43.1818 4.54545H6.81818C5.56299 4.54545 4.54545 5.56299 4.54545 6.81818V43.1818C4.54545 44.437 5.56299 45.4545 6.81818 45.4545H43.1818C44.437 45.4545 45.4545 44.437 45.4545 43.1818V6.81818Z" fill="#B1B1B1"/>
<path d="M8.65147 37.5481L18.4593 19.567C19.3207 17.9878 21.5884 17.9878 22.4498 19.567L29.6512 32.7696L32.1176 28.4532C32.9901 26.9264 35.1917 26.9264 36.0642 28.4532L41.2388 37.5088C42.1046 39.0239 41.0106 40.9091 39.2655 40.9091H10.6467C8.92155 40.9091 7.82539 39.0626 8.65147 37.5481Z" fill="#B1B1B1"/>
<path d="M38.6364 15.9091C38.6364 18.4195 36.6013 20.4545 34.0909 20.4545C31.5805 20.4545 29.5455 18.4195 29.5455 15.9091C29.5455 13.3987 31.5805 11.3636 34.0909 11.3636C36.6013 11.3636 38.6364 13.3987 38.6364 15.9091Z" fill="#B1B1B1"/>
</g>
</svg>
