<svg width="46" height="56" viewBox="0 0 46 56" fill="none" xmlns="http://www.w3.org/2000/svg">
<path d="M26.75 39.4634C26.75 41.5344 25.0711 43.2134 23 43.2134C20.9289 43.2134 19.25 41.5344 19.25 39.4634C19.25 37.3923 20.9289 35.7134 23 35.7134C25.0711 35.7134 26.75 37.3923 26.75 39.4634Z" fill="#B1B1B1"/>
<path fill-rule="evenodd" clip-rule="evenodd" d="M7.85522 23.0014C7.84802 22.6833 7.84375 22.3433 7.84375 21.9844C7.84375 19.7685 8.00634 16.7595 8.68453 13.7077C9.35695 10.6818 10.5811 7.40754 12.8502 4.85472C15.1978 2.21374 18.5331 0.5 23 0.5C27.4669 0.5 30.8022 2.21374 33.1498 4.85472C35.4189 7.40754 36.643 10.6818 37.3155 13.7077C37.9937 16.7595 38.1562 19.7685 38.1562 21.9844C38.1562 22.3433 38.152 22.6833 38.1448 23.0014C42.2201 23.0785 45.5 26.4062 45.5 30.5V48C45.5 52.1421 42.1421 55.5 38 55.5H8C3.85787 55.5 0.5 52.1421 0.5 48V30.5C0.5 26.4062 3.7799 23.0785 7.85522 23.0014ZM33.1434 23C33.1514 22.6866 33.1562 22.3467 33.1562 21.9844C33.1562 19.9815 33.0063 17.3655 32.4345 14.7923C31.8569 12.1932 30.8936 9.84246 29.4127 8.17653C28.0103 6.59876 26.0331 5.5 23 5.5C19.9669 5.5 17.9897 6.59876 16.5873 8.17653C15.1065 9.84246 14.143 12.1932 13.5655 14.7923C12.9937 17.3655 12.8438 19.9815 12.8438 21.9844C12.8438 22.3467 12.8486 22.6866 12.8566 23H33.1434ZM40.5 30.5C40.5 29.1193 39.3807 28 38 28H8C6.61929 28 5.5 29.1193 5.5 30.5V48C5.5 49.3807 6.61929 50.5 8 50.5H38C39.3807 50.5 40.5 49.3807 40.5 48V30.5Z" fill="#B1B1B1"/>
</svg>
