<svg width="28" height="28" viewBox="0 0 28 28" fill="none" xmlns="http://www.w3.org/2000/svg">
<path fill-rule="evenodd" clip-rule="evenodd" d="M22.1667 26.8337H12.8333C12.189 26.8337 11.6667 26.3113 11.6667 25.667C11.6667 25.0227 12.189 24.5003 12.8333 24.5003H22.1667C22.811 24.5003 23.3333 23.978 23.3333 23.3337V4.66699C23.3333 4.02266 22.811 3.50033 22.1667 3.50033L12.8333 3.50033C12.189 3.50033 11.6667 2.97799 11.6667 2.33366C11.6667 1.68933 12.189 1.16699 12.8333 1.16699L22.1667 1.16699C24.0997 1.16699 25.6667 2.734 25.6667 4.66699V23.3337C25.6667 25.2667 24.0997 26.8337 22.1667 26.8337Z" fill="black"/>
<path fill-rule="evenodd" clip-rule="evenodd" d="M2.90337 15.5285C2.14329 14.6515 2.1433 13.3492 2.90337 12.4722L7.77619 6.84968C9.19083 5.21741 11.8728 6.21788 11.8728 8.37785L11.8728 10.5003H18.8728C20.1615 10.5003 21.2061 11.545 21.2061 12.8337V15.167C21.2061 16.4557 20.1615 17.5003 18.8728 17.5003L11.8728 17.5003V19.6228C11.8728 21.7828 9.19083 22.7833 7.77619 21.151L2.90337 15.5285ZM5.32885 13.2363C4.94881 13.6748 4.94882 14.3259 5.32885 14.7644L9.53947 19.6228V16.917C9.53947 15.9505 10.323 15.167 11.2895 15.167L18.8728 15.167V12.8337L11.2895 12.8337C10.323 12.8337 9.53947 12.0502 9.53947 11.0837L9.53947 8.37785L5.32885 13.2363Z" fill="black"/>
</svg>
