<svg width="28" height="28" viewBox="0 0 28 28" fill="none" xmlns="http://www.w3.org/2000/svg">
<path fill-rule="evenodd" clip-rule="evenodd" d="M22.1668 26.8337H12.8335C12.1892 26.8337 11.6668 26.3113 11.6668 25.667C11.6668 25.0227 12.1892 24.5003 12.8335 24.5003H22.1668C22.8112 24.5003 23.3335 23.978 23.3335 23.3337V4.66699C23.3335 4.02266 22.8112 3.50033 22.1668 3.50033L12.8335 3.50033C12.1892 3.50033 11.6668 2.97799 11.6668 2.33366C11.6668 1.68933 12.1892 1.16699 12.8335 1.16699L22.1668 1.16699C24.0998 1.16699 25.6668 2.734 25.6668 4.66699V23.3337C25.6668 25.2667 24.0998 26.8337 22.1668 26.8337Z" fill="#6A6FD5"/>
<path fill-rule="evenodd" clip-rule="evenodd" d="M2.90355 15.5285C2.14347 14.6515 2.14348 13.3492 2.90356 12.4722L7.77638 6.84968C9.19101 5.21741 11.873 6.21788 11.873 8.37785L11.873 10.5003H18.873C20.1616 10.5003 21.2063 11.545 21.2063 12.8337V15.167C21.2063 16.4557 20.1616 17.5003 18.873 17.5003L11.873 17.5003V19.6228C11.873 21.7828 9.19101 22.7833 7.77638 21.151L2.90355 15.5285ZM5.32904 13.2363C4.949 13.6748 4.949 14.3259 5.32904 14.7644L9.53965 19.6228V16.917C9.53965 15.9505 10.3232 15.167 11.2897 15.167L18.873 15.167V12.8337L11.2897 12.8337C10.3232 12.8337 9.53965 12.0502 9.53965 11.0837L9.53965 8.37785L5.32904 13.2363Z" fill="#6A6FD5"/>
</svg>
