<svg width="48" height="48" viewBox="0 0 48 48" fill="none" xmlns="http://www.w3.org/2000/svg">
<path fill-rule="evenodd" clip-rule="evenodd" d="M29.0004 21V11C29.0004 8.23858 26.7618 6 24.0004 6C21.2389 6 19.0004 8.23858 19.0004 11V21C19.0004 23.7614 21.2389 26 24.0004 26C26.7618 26 29.0004 23.7614 29.0004 21ZM24.0004 2C19.0298 2 15.0004 6.02944 15.0004 11V21C15.0004 25.9706 19.0298 30 24.0004 30C28.9709 30 33.0004 25.9706 33.0004 21V11C33.0004 6.02944 28.9709 2 24.0004 2Z" fill="#6A6FD5"/>
<path d="M24.0004 34C11.0003 34 12.0003 24 12.0003 24C12.0003 24 12.0004 22 10.0004 22C8.00039 22 8.00034 24 8.00034 24C8.00034 24 7.08062 36.8764 22.0004 37.9314V44C22.0004 45.1046 22.8958 46 24.0004 46C25.1049 46 26.0004 45.1046 26.0004 44V37.9314C40.9201 36.8764 40.0004 24 40.0004 24C40.0004 24 40.0004 22 38.0004 22C36.0004 22 36.0003 24 36.0003 24C36.0003 24 37.0004 34 24.0004 34Z" fill="#6A6FD5"/>
</svg>
