<svg width="28" height="28" viewBox="0 0 28 28" fill="none" xmlns="http://www.w3.org/2000/svg">
<path fill-rule="evenodd" clip-rule="evenodd" d="M19.8791 18.2285C21.3166 16.4314 22.1762 14.1518 22.1762 11.6715C22.1762 5.8699 17.4731 1.16675 11.6715 1.16675C5.86982 1.16675 1.16667 5.8699 1.16667 11.6715C1.16667 17.4732 5.86982 22.1763 11.6715 22.1763C14.1518 22.1763 16.4313 21.3167 18.2284 19.8792L24.8408 26.4916C25.2966 26.9474 26.0357 26.9474 26.4915 26.4916C26.9473 26.0357 26.9473 25.2967 26.4915 24.8409L19.8791 18.2285ZM11.6715 19.8536C7.15261 19.8536 3.48935 16.1904 3.48935 11.6715C3.48935 7.15269 7.15261 3.48943 11.6715 3.48943C16.1903 3.48943 19.8536 7.15269 19.8536 11.6715C19.8536 16.1904 16.1903 19.8536 11.6715 19.8536Z" fill="black"/>
</svg>
