<svg width="24" height="24" viewBox="0 0 24 24" fill="none" xmlns="http://www.w3.org/2000/svg">
<path fill-rule="evenodd" clip-rule="evenodd" d="M1.26522 4.42631C1.04314 2.8718 2.61711 1.67944 4.05344 2.3141L21.8343 10.1707C23.4232 10.8728 23.4232 13.1274 21.8343 13.8295L4.05344 21.6861C2.61712 22.3208 1.04314 21.1285 1.26522 19.5739L1.99123 14.4918C2.06023 14.0088 2.41479 13.6157 2.88813 13.4974L8.87709 12.0001L2.88813 10.5029C2.4148 10.3845 2.06023 9.99141 1.99123 9.50841L1.26522 4.42631ZM21.026 12.0001L3.24512 4.14347L3.89506 8.69306L12.8547 10.933C13.9656 11.2107 13.9656 12.7895 12.8547 13.0673L3.89506 15.3072L3.24512 19.8568L21.026 12.0001Z" fill="#009ACA"/>
</svg>
