<svg width="28" height="28" viewBox="0 0 28 28" fill="none" xmlns="http://www.w3.org/2000/svg">
<path fill-rule="evenodd" clip-rule="evenodd" d="M4.1996 7.26181C3.92266 5.62405 5.46035 4.25443 7.08556 4.6913L8.31605 5.02207C9.29265 5.28458 10.3289 4.88973 10.8723 4.04799L12.0517 2.22128C12.9593 0.815563 15.0413 0.81556 15.9489 2.22128L17.1283 4.04799C17.6718 4.88973 18.708 5.28458 19.6846 5.02207L20.9151 4.6913C22.5403 4.25443 24.078 5.62405 23.801 7.26181L23.4975 9.05675C23.3415 9.97923 23.7738 10.9019 24.5875 11.3831L25.7123 12.0483C27.2074 12.9325 27.2074 15.0682 25.7123 15.9524L24.5875 16.6176C23.7738 17.0988 23.3415 18.0214 23.4975 18.9439L23.801 20.7388C24.078 22.3766 22.5403 23.7462 20.9151 23.3094L19.6846 22.9786C18.708 22.7161 17.6718 23.1109 17.1283 23.9527L15.9489 25.7794C15.0413 27.1851 12.9593 27.1851 12.0517 25.7794L10.8723 23.9527C10.3289 23.1109 9.29265 22.7161 8.31605 22.9786L7.08556 23.3093C5.46035 23.7462 3.92266 22.3766 4.1996 20.7388L4.50312 18.9439C4.65911 18.0214 4.22682 17.0988 3.41319 16.6176L2.28835 15.9524C0.793207 15.0682 0.793208 12.9325 2.28835 12.0483L3.41319 11.3831C4.22682 10.9019 4.65911 9.97923 4.50312 9.05675L4.1996 7.26181ZM10.5358 7.1709H7.07132V10.5856L3.60681 14.0003L7.07132 17.415V20.8298H10.5358L14.0003 24.2445L17.4648 20.8298H20.9293V17.415L24.3938 14.0003L20.9293 10.5856V7.1709H17.4648L14.0003 3.75619L10.5358 7.1709Z" fill="#6A6FD5"/>
<path d="M19.1937 14.0003C19.1937 16.8292 16.8671 19.1224 13.997 19.1224C11.1269 19.1224 8.80023 16.8292 8.80023 14.0003C8.80023 11.1715 11.1269 8.87826 13.997 8.87826C16.8671 8.87826 19.1937 11.1715 19.1937 14.0003ZM11.1066 14.0003C11.1066 15.5737 12.4006 16.8492 13.997 16.8492C15.5933 16.8492 16.8874 15.5737 16.8874 14.0003C16.8874 12.4269 15.5933 11.1514 13.997 11.1514C12.4006 11.1514 11.1066 12.4269 11.1066 14.0003Z" fill="#6A6FD5"/>
</svg>
