<svg width="28" height="28" viewBox="0 0 28 28" fill="none" xmlns="http://www.w3.org/2000/svg">
<path d="M10.5 12.8337C10.5 12.1893 11.0223 11.667 11.6667 11.667C12.311 11.667 12.8333 12.1893 12.8333 12.8337V19.8337C12.8333 20.478 12.311 21.0003 11.6667 21.0003C11.0223 21.0003 10.5 20.478 10.5 19.8337V12.8337Z" fill="#6A6FD5"/>
<path d="M16.3333 11.667C15.689 11.667 15.1667 12.1893 15.1667 12.8337V19.8337C15.1667 20.478 15.689 21.0003 16.3333 21.0003C16.9777 21.0003 17.5 20.478 17.5 19.8337V12.8337C17.5 12.1893 16.9777 11.667 16.3333 11.667Z" fill="#6A6FD5"/>
<path fill-rule="evenodd" clip-rule="evenodd" d="M9.953 1.16699C6.44426 1.16699 3.7295 4.24222 4.16471 7.72386L6.1702 23.7678C6.38914 25.5193 7.87804 26.8337 9.64317 26.8337H18.3569C20.122 26.8337 21.6109 25.5193 21.8298 23.7678L23.8353 7.72386C24.2705 4.24222 21.5558 1.16699 18.047 1.16699H9.953ZM6.65174 5.83366C7.12911 4.48674 8.41371 3.50033 9.953 3.50033H18.047C19.5863 3.50033 20.8709 4.48674 21.3483 5.83366H6.65174ZM6.57159 8.16699L8.48551 23.4784C8.55849 24.0622 9.0548 24.5003 9.64317 24.5003H18.3569C18.9452 24.5003 19.4415 24.0622 19.5145 23.4784L21.4284 8.16699H6.57159Z" fill="#6A6FD5"/>
</svg>
