<svg width="32" height="32" viewBox="0 0 32 32" fill="none" xmlns="http://www.w3.org/2000/svg">
<path d="M18 22.1139C18 23.2185 17.1046 24.1139 16 24.1139C14.8954 24.1139 14 23.2185 14 22.1139C14 21.0093 14.8954 20.1139 16 20.1139C17.1046 20.1139 18 21.0093 18 22.1139Z" fill="#6A6FD5"/>
<path fill-rule="evenodd" clip-rule="evenodd" d="M8.44489 13.3334C8.27962 12.8589 8.12691 12.3612 7.99782 11.849C7.59376 10.246 7.39314 8.39252 7.8633 6.63261C8.3497 4.81192 9.52886 3.19661 11.6576 2.12706C13.7864 1.05751 15.7862 1.07561 17.5373 1.77212C19.23 2.44538 20.5973 3.71267 21.6423 4.9937C21.9069 5.31811 22.1554 5.64901 22.3876 5.9794C22.7741 6.52951 22.6378 7.279 22.1098 7.69515C21.4827 8.18936 20.5688 8.01523 20.1024 7.36719C19.9352 7.13492 19.7597 6.90451 19.5759 6.67929C18.6784 5.57894 17.6564 4.68933 16.5518 4.24997C15.5056 3.83386 14.3003 3.78365 12.8548 4.50988C11.4094 5.23612 10.7302 6.23316 10.4396 7.32088C10.1328 8.46936 10.2365 9.82032 10.5836 11.1973C10.7727 11.9475 11.0258 12.6733 11.2951 13.3334H24C26.2091 13.3334 28 15.1243 28 17.3334V26.6668C28 28.8759 26.2091 30.6668 24 30.6668H8C5.79086 30.6668 4 28.8759 4 26.6668V17.3334C4 15.1243 5.79086 13.3334 8 13.3334H8.44489ZM25.3333 17.3334C25.3333 16.597 24.7364 16.0001 24 16.0001H8C7.26362 16.0001 6.66667 16.597 6.66667 17.3334V26.6668C6.66667 27.4031 7.26362 28.0001 8 28.0001H24C24.7364 28.0001 25.3333 27.4031 25.3333 26.6668V17.3334Z" fill="#6A6FD5"/>
</svg>
