<svg width="20" height="20" viewBox="0 0 20 20" fill="none" xmlns="http://www.w3.org/2000/svg">
<path fill-rule="evenodd" clip-rule="evenodd" d="M8.66658 1.49998C9.6276 0.218621 11.6666 0.898301 11.6666 2.49998V17.6012C11.6666 19.2116 9.60932 19.8856 8.65638 18.5874L5.41122 14.1666H3.33325C1.95254 14.1666 0.833252 13.0474 0.833252 11.6666V8.33331C0.833252 6.9526 1.95254 5.83331 3.33325 5.83331H5.41658L8.66658 1.49998ZM9.99992 2.49998L6.74992 6.83331C6.43516 7.25299 5.94118 7.49998 5.41658 7.49998H3.33325C2.87301 7.49998 2.49992 7.87307 2.49992 8.33331V11.6666C2.49992 12.1269 2.87301 12.5 3.33325 12.5H5.41122C5.94184 12.5 6.44076 12.7526 6.75476 13.1804L9.99992 17.6012V2.49998Z" fill="#009ACA"/>
<path d="M13.5113 3.47868C13.4244 2.9704 13.8144 2.49997 14.33 2.49997C14.7195 2.49997 15.0539 2.77331 15.1219 3.15684C15.3534 4.4612 15.8333 7.47052 15.8333 9.99998C15.8333 12.5294 15.3534 15.5388 15.1219 16.8431C15.0539 17.2266 14.7195 17.5 14.33 17.5C13.8144 17.5 13.4244 17.0296 13.5113 16.5213C13.7561 15.0894 14.1666 12.3394 14.1666 9.99998C14.1666 7.66051 13.7561 4.91056 13.5113 3.47868Z" fill="#009ACA"/>
<path d="M17.8416 4.16664C17.2788 4.16664 16.8668 4.74495 16.9971 5.29246C17.2298 6.27009 17.4999 7.86489 17.4999 9.99998C17.4999 12.1351 17.2298 13.7299 16.9971 14.7075C16.8668 15.255 17.2788 15.8333 17.8416 15.8333C18.1429 15.8333 18.4144 15.662 18.5084 15.3757C18.7528 14.6308 19.1666 12.936 19.1666 9.99998C19.1666 7.06391 18.7528 5.36919 18.5084 4.62425C18.4144 4.33795 18.1429 4.16664 17.8416 4.16664Z" fill="#009ACA"/>
</svg>
