<svg width="40" height="40" viewBox="0 0 40 40" fill="none" xmlns="http://www.w3.org/2000/svg">
<path fill-rule="evenodd" clip-rule="evenodd" d="M6.66669 9.99935C5.74621 9.99935 5.00002 10.7455 5.00002 11.666V28.3327C5.00002 29.2532 5.74621 29.9993 6.66669 29.9993H23.3334C24.2538 29.9993 25 29.2532 25 28.3327V26.5564C25 24.5597 27.2254 23.3687 28.8868 24.4763L35 28.5518V11.4469L28.8868 15.5224C27.2254 16.63 25 15.439 25 13.4423V11.666C25 10.7455 24.2538 9.99935 23.3334 9.99935H6.66669ZM1.66669 11.666C1.66669 8.90459 3.90526 6.66602 6.66669 6.66602H23.3334C26.0948 6.66602 28.3334 8.90459 28.3334 11.666V11.8852L33.151 8.67338C35.3662 7.19659 38.3334 8.78456 38.3334 11.4469V28.5518C38.3334 31.2141 35.3662 32.8021 33.151 31.3253L28.3334 28.1135V28.3327C28.3334 31.0941 26.0948 33.3327 23.3334 33.3327H6.66669C3.90526 33.3327 1.66669 31.0941 1.66669 28.3327V11.666Z" fill="#009ACA"/>
</svg>
